<svg xmlns="http://www.w3.org/2000/svg" width="17.723" height="18.406" viewBox="0 0 17.723 18.406">
  <path id="Caminho_569" data-name="Caminho 569" d="M17.924-5.529,16.7-6.234a7.153,7.153,0,0,0,0-1.781l1.225-.705a.83.83,0,0,0,.371-.445.979.979,0,0,0,.037-.594,9.081,9.081,0,0,0-2.152-3.674.976.976,0,0,0-.52-.278.794.794,0,0,0-.557.093l-1.225.705A6.068,6.068,0,0,0,12.32-13.8v-1.41a.861.861,0,0,0-.186-.538.867.867,0,0,0-.52-.315,8.742,8.742,0,0,0-4.23,0,.867.867,0,0,0-.52.315.861.861,0,0,0-.186.538v1.41a6.069,6.069,0,0,0-1.559.891L3.9-13.619a.794.794,0,0,0-.557-.093.976.976,0,0,0-.52.278A9.081,9.081,0,0,0,.668-9.76a.979.979,0,0,0,.037.594.83.83,0,0,0,.371.445L2.3-8.016a7.153,7.153,0,0,0,0,1.781l-1.225.705a.83.83,0,0,0-.371.445.979.979,0,0,0-.037.594A9.081,9.081,0,0,0,2.82-.816a.976.976,0,0,0,.52.278A.794.794,0,0,0,3.9-.631l1.225-.705A6.069,6.069,0,0,0,6.68-.445V.965a.866.866,0,0,0,.705.854,8.742,8.742,0,0,0,4.23,0A.866.866,0,0,0,12.32.965V-.445a6.068,6.068,0,0,0,1.559-.891L15.1-.631a.794.794,0,0,0,.557.093.976.976,0,0,0,.52-.278A9.081,9.081,0,0,0,18.332-4.49a.979.979,0,0,0-.037-.594A.83.83,0,0,0,17.924-5.529ZM15.475-1.781l-1.707-1a11.8,11.8,0,0,1-1.243.909,8.34,8.34,0,0,1-1.392.612v2a8.066,8.066,0,0,1-3.266,0v-2a9.846,9.846,0,0,1-1.392-.594,8.482,8.482,0,0,1-1.243-.928l-1.707,1A8.1,8.1,0,0,1,1.893-4.6L3.6-5.6a9.106,9.106,0,0,1-.186-1.521A9.106,9.106,0,0,1,3.6-8.646l-1.707-1a8.1,8.1,0,0,1,1.633-2.82l1.707,1a8.482,8.482,0,0,1,1.243-.928,9.846,9.846,0,0,1,1.392-.594v-2a8.066,8.066,0,0,1,3.266,0v2a9.846,9.846,0,0,1,1.392.594,8.482,8.482,0,0,1,1.243.928l1.707-1a8.1,8.1,0,0,1,1.633,2.82l-1.707,1a9.106,9.106,0,0,1,.186,1.521A9.106,9.106,0,0,1,15.4-5.6l1.707,1A8.1,8.1,0,0,1,15.475-1.781ZM9.5-10.687A3.436,3.436,0,0,0,6.977-9.648,3.436,3.436,0,0,0,5.938-7.125,3.436,3.436,0,0,0,6.977-4.6,3.436,3.436,0,0,0,9.5-3.562,3.436,3.436,0,0,0,12.023-4.6a3.436,3.436,0,0,0,1.039-2.523,3.436,3.436,0,0,0-1.039-2.523A3.436,3.436,0,0,0,9.5-10.687Zm0,5.938a2.282,2.282,0,0,1-1.67-.705,2.282,2.282,0,0,1-.705-1.67,2.282,2.282,0,0,1,.705-1.67A2.282,2.282,0,0,1,9.5-9.5a2.282,2.282,0,0,1,1.67.705,2.282,2.282,0,0,1,.705,1.67,2.282,2.282,0,0,1-.705,1.67A2.282,2.282,0,0,1,9.5-4.75Z" transform="translate(-0.638 16.328)" fill="#fff"/>
</svg>
