<svg width="32" height="32" viewBox="0 0 32 32" fill="none" xmlns="http://www.w3.org/2000/svg">
<path fill-rule="evenodd" clip-rule="evenodd" d="M16 32C24.8366 32 32 24.8366 32 16C32 7.16344 24.8366 0 16 0C7.16344 0 0 7.16344 0 16C0 24.8366 7.16344 32 16 32ZM21.8792 22.3428V24H23.341V22.3344C24.4626 22.2278 25.3513 21.8829 26.0071 21.2997C26.669 20.7108 27 19.9313 27 18.9611C27 18.2993 26.8529 17.7385 26.5587 17.2787C26.2707 16.8188 25.8294 16.4178 25.2349 16.0757C24.6465 15.728 23.9018 15.3915 23.0008 15.0662C22.2715 14.8027 21.7689 14.5363 21.4931 14.2671C21.2234 13.9923 21.0886 13.6362 21.0886 13.1987C21.0886 12.7389 21.2173 12.3715 21.4747 12.0967C21.7383 11.8163 22.1336 11.6761 22.6607 11.6761C23.1694 11.6761 23.5739 11.8556 23.8742 12.2145C24.1745 12.5734 24.3247 13.0838 24.3247 13.7455H26.9356L26.9632 13.7035C26.9755 12.6211 26.6721 11.7434 26.0531 11.0705C25.4402 10.3919 24.5974 9.97967 23.5249 9.83386V8H22.0631V9.80862C20.9476 9.91518 20.0589 10.2713 19.397 10.877C18.7412 11.477 18.4133 12.2482 18.4133 13.1903C18.4133 13.8689 18.5573 14.4409 18.8454 14.9064C19.1396 15.3663 19.5809 15.7673 20.1692 16.1094C20.7638 16.4458 21.5146 16.7655 22.4216 17.0683C23.1142 17.3151 23.6015 17.5815 23.8834 17.8675C24.1715 18.1535 24.3155 18.5237 24.3155 18.9779C24.3155 19.4378 24.1653 19.8051 23.865 20.0799C23.5708 20.3491 23.1449 20.4837 22.5871 20.4837C22.011 20.4837 21.5329 20.3211 21.1529 19.9958C20.7729 19.6705 20.583 19.1321 20.583 18.3807H17.972L17.9536 18.4227C17.9352 19.2471 18.0946 19.9369 18.4317 20.4921C18.7688 21.0473 19.2376 21.4763 19.8383 21.7792C20.4389 22.082 21.1192 22.2699 21.8792 22.3428ZM5 20.7277V22.1998H10.5437V20.7277L9.10949 20.4753V17.3628H11.555L13.6143 22.1998H16.8688V20.7277L15.7288 20.4837L14.028 16.8833C14.7267 16.5636 15.2752 16.1178 15.6736 15.5457C16.0781 14.9737 16.2804 14.326 16.2804 13.6025C16.2804 12.4641 15.8422 11.5724 14.9657 10.9274C14.0893 10.2769 12.8819 9.95163 11.3435 9.95163H5V11.4322L6.42499 11.6845V20.4753L5 20.7277ZM11.2975 15.47H9.10949V11.8444H11.3435C12.0912 11.8444 12.6551 12.0154 13.0351 12.3575C13.4151 12.694 13.6051 13.1455 13.6051 13.7119C13.6051 14.884 12.8359 15.47 11.2975 15.47Z" fill="white"/>
</svg>
