<svg id="calendar" xmlns="http://www.w3.org/2000/svg" width="17.767" height="17.767" viewBox="0 0 17.767 17.767">
  <path id="Caminho_971" data-name="Caminho 971" d="M15.476,1.388h-1.6V.555a.555.555,0,1,0-1.11,0v.833H5V.555a.555.555,0,0,0-1.11,0v.833H2.29A2.293,2.293,0,0,0,0,3.678v11.8a2.293,2.293,0,0,0,2.29,2.29H15.476a2.293,2.293,0,0,0,2.29-2.29V3.678A2.293,2.293,0,0,0,15.476,1.388Zm1.18,14.088a1.18,1.18,0,0,1-1.18,1.18H2.29a1.18,1.18,0,0,1-1.18-1.18v-9.2a.174.174,0,0,1,.174-.174h15.2a.174.174,0,0,1,.174.174Z" fill="#6a7584"/>
</svg>
