<svg width="55" height="39" viewBox="0 0 55 39" fill="none" xmlns="http://www.w3.org/2000/svg">
<g clip-path="url(#clip0)">
<path d="M51.5605 38.1351H24.0626C22.6403 38.1351 21.4832 36.9713 21.4832 35.5407V35.0504C21.4832 33.6198 22.6403 32.4559 24.0626 32.4559H51.5605C52.9828 32.4559 54.14 33.6198 54.14 35.0504V35.5407C54.14 36.9713 52.9828 38.1351 51.5605 38.1351ZM51.5605 22.3388H3.43722C2.01577 22.3388 0.859344 21.175 0.859344 19.7444V19.2556C0.859344 17.825 2.01577 16.6612 3.43722 16.6612H51.5605C52.9828 16.6612 54.14 17.825 54.14 19.2556V19.7444C54.14 21.175 52.9828 22.3388 51.5605 22.3388ZM30.9367 6.54405H3.43722C2.01577 6.54405 0.859344 5.38021 0.859344 3.94964V3.45927C0.859344 2.0287 2.01577 0.864861 3.43722 0.864861H30.9367C32.3581 0.864861 33.5146 2.0287 33.5146 3.45927V3.94964C33.5146 5.38021 32.3581 6.54405 30.9367 6.54405Z" fill="white"/>
<path d="M51.5605 37.2703C52.5103 37.2703 53.2806 36.4966 53.2806 35.5407V35.0504C53.2806 34.0961 52.5103 33.3208 51.5605 33.3208H24.0626C23.1129 33.3208 22.3425 34.0961 22.3425 35.0504V35.5407C22.3425 36.4966 23.1129 37.2703 24.0626 37.2703H51.5605ZM51.5605 21.474C52.5103 21.474 53.2806 20.7003 53.2806 19.7444V19.2556C53.2806 18.2997 52.5103 17.526 51.5605 17.526H3.43722C2.48747 17.526 1.7187 18.2997 1.7187 19.2556V19.7444C1.7187 20.7003 2.48747 21.474 3.43722 21.474H51.5605ZM30.9367 5.67919C31.8865 5.67919 32.6552 4.90393 32.6552 3.94964V3.45927C32.6552 2.50342 31.8865 1.72972 30.9367 1.72972H3.43722C2.48747 1.72972 1.7187 2.50342 1.7187 3.45927V3.94964C1.7187 4.90393 2.48747 5.67919 3.43722 5.67919H30.9367ZM51.5605 39H24.0626C22.1665 39 20.6238 37.4482 20.6238 35.5407V35.0504C20.6238 33.1429 22.1665 31.5911 24.0626 31.5911H51.5605C53.4567 31.5911 54.9993 33.1429 54.9993 35.0504V35.5407C54.9993 37.4482 53.4567 39 51.5605 39ZM51.5605 23.2037H3.43722C1.54193 23.2037 0 21.6519 0 19.7444V19.2556C0 17.3481 1.54193 15.7963 3.43722 15.7963H51.5605C53.4567 15.7963 54.9993 17.3481 54.9993 19.2556V19.7444C54.9993 21.6519 53.4567 23.2037 51.5605 23.2037ZM30.9367 7.40891H3.43722C1.54193 7.40891 0 5.85709 0 3.94964V3.45927C0 1.55182 1.54193 0 3.43722 0H30.9367C32.832 0 34.3739 1.55182 34.3739 3.45927V3.94964C34.3739 5.85709 32.832 7.40891 30.9367 7.40891Z" fill="white"/>
</g>
<defs>
<clipPath id="clip0">
<rect width="55" height="39" fill="white"/>
</clipPath>
</defs>
</svg>
