<svg width="55" height="55" viewBox="0 0 55 55" fill="none" xmlns="http://www.w3.org/2000/svg">
<g clip-path="url(#clip0)">
<path d="M52.3133 0H2.68675C1.9744 0.000728 1.29144 0.284029 0.787735 0.787735C0.284029 1.29144 0.000728 1.9744 0 2.68675L0 47.63C0.000963621 48.0948 0.121981 48.5514 0.351322 48.9556C0.580663 49.3599 0.910548 49.698 1.309 49.9373L9.41325 54.7745C9.66275 54.9232 9.9478 55.0017 10.2383 55.0017C10.5287 55.0017 10.8137 54.9232 11.0632 54.7745L18.8678 50.1188L26.675 54.7717C26.9245 54.9204 27.2096 54.9989 27.5 54.9989C27.7904 54.9989 28.0755 54.9204 28.325 54.7717L36.1295 50.116L43.934 54.7717C44.1835 54.9204 44.4685 54.9989 44.759 54.9989C45.0494 54.9989 45.3345 54.9204 45.584 54.7717L53.691 49.9345C54.0891 49.6955 54.4187 49.3578 54.648 48.9541C54.8773 48.5504 54.9986 48.0943 55 47.63V2.68675C54.9993 1.9744 54.716 1.29144 54.2123 0.787735C53.7086 0.284029 53.0256 0.000728 52.3133 0V0ZM51.7632 47.3247L44.7452 51.513L36.9407 46.8572C36.6912 46.7086 36.4062 46.6301 36.1158 46.6301C35.8253 46.6301 35.5403 46.7086 35.2908 46.8572L27.5 51.513L19.6955 46.8545C19.446 46.7058 19.1609 46.6273 18.8705 46.6273C18.5801 46.6273 18.295 46.7058 18.0455 46.8545L10.241 51.513L3.223 47.3247V3.223H51.777L51.7632 47.3247Z" fill="white"/>
<path d="M33.55 35.1395C35.0101 36.1972 36.746 36.8077 38.5467 36.8967V38.4587C38.5457 38.877 38.7036 39.2801 38.9885 39.5865C39.2734 39.8928 39.664 40.0795 40.0813 40.1087C40.299 40.1191 40.5166 40.0853 40.7209 40.0091C40.9252 39.933 41.112 39.8162 41.2699 39.6658C41.4277 39.5154 41.5534 39.3345 41.6393 39.1342C41.7252 38.9338 41.7696 38.718 41.7697 38.5V36.7565C43.0916 36.4841 44.3143 35.8567 45.3062 34.9415C46.5744 33.772 47.4188 32.2148 47.7069 30.514C48.0184 28.8905 47.7194 27.2092 46.8673 25.7927C46.0152 24.3762 44.6699 23.3242 43.0897 22.8387C42.6552 22.6847 42.2125 22.5252 41.7697 22.3575V15.1882C42.3811 15.3747 42.9704 15.6274 43.527 15.9417C43.9013 16.1297 44.3341 16.1642 44.7335 16.0381C45.1328 15.9119 45.4673 15.635 45.6657 15.2661C45.8641 14.8972 45.9108 14.4656 45.7959 14.0628C45.681 13.66 45.4136 13.3179 45.0504 13.1092C44.0299 12.5309 42.9217 12.1231 41.7697 11.902V10.5132C41.7707 10.0949 41.6129 9.69183 41.328 9.38551C41.0431 9.07919 40.6525 8.89251 40.2353 8.86323C40.0175 8.85281 39.7998 8.88669 39.5955 8.96283C39.3912 9.03896 39.2045 9.15578 39.0466 9.30618C38.8888 9.45658 38.7631 9.63744 38.6771 9.83783C38.5912 10.0382 38.5468 10.2539 38.5467 10.472V12.0257C37.289 12.2802 36.1377 12.9091 35.244 13.8298C34.3503 14.7505 33.756 15.92 33.539 17.1847C33.3103 18.1851 33.3607 19.2291 33.6846 20.2028C34.0085 21.1766 34.5936 22.0427 35.376 22.7067C36.3531 23.4415 37.4171 24.0529 38.5439 24.5272V33.671C37.3566 33.5782 36.2213 33.1447 35.2742 32.4225C35.0923 32.3037 34.8882 32.2229 34.6742 32.185C34.4603 32.1471 34.2409 32.1528 34.0292 32.2019C33.8175 32.251 33.618 32.3423 33.4425 32.4705C33.267 32.5987 33.1193 32.761 33.0082 32.9477C32.8031 33.3135 32.7449 33.7437 32.8455 34.1508C32.9462 34.5579 33.1981 34.9114 33.55 35.1395V35.1395ZM41.7669 25.7895C42.6833 25.9879 43.4852 26.5383 43.9995 27.3223C44.5139 28.1062 44.6997 29.0608 44.5169 29.9805C44.3916 30.7401 44.0728 31.4547 43.5912 32.0553C43.1095 32.656 42.4812 33.1224 41.7669 33.4097V25.7895ZM37.367 20.163C37.067 19.7918 36.857 19.3563 36.7533 18.8904C36.6496 18.4246 36.6551 17.9411 36.7693 17.4777C36.8835 17.0143 37.1035 16.5837 37.4118 16.2194C37.7202 15.8551 38.1086 15.5672 38.5467 15.378V20.9275C38.1359 20.7038 37.7433 20.4481 37.3725 20.163H37.367Z" fill="white"/>
<path d="M8.80272 12.0697H25.564C25.9914 12.0697 26.4013 11.9 26.7035 11.5977C27.0057 11.2955 27.1755 10.8856 27.1755 10.4582C27.1755 10.0308 27.0057 9.62094 26.7035 9.31873C26.4013 9.01651 25.9914 8.84674 25.564 8.84674H8.80272C8.37532 8.84674 7.96544 9.01651 7.66323 9.31873C7.36101 9.62094 7.19122 10.0308 7.19122 10.4582C7.19122 10.8856 7.36101 11.2955 7.66323 11.5977C7.96544 11.9 8.37532 12.0697 8.80272 12.0697V12.0697Z" fill="white"/>
<path d="M8.80272 21.4253H25.564C25.9914 21.4253 26.4013 21.2554 26.7035 20.9532C27.0057 20.651 27.1755 20.2412 27.1755 19.8138C27.1755 19.3864 27.0057 18.9765 26.7035 18.6743C26.4013 18.372 25.9914 18.2022 25.564 18.2022H8.80272C8.37532 18.2022 7.96544 18.372 7.66323 18.6743C7.36101 18.9765 7.19122 19.3864 7.19122 19.8138C7.19122 20.2412 7.36101 20.651 7.66323 20.9532C7.96544 21.2554 8.37532 21.4253 8.80272 21.4253V21.4253Z" fill="white"/>
<path d="M8.80272 30.767H25.564C25.9914 30.767 26.4013 30.5972 26.7035 30.295C27.0057 29.9928 27.1755 29.5829 27.1755 29.1555C27.1755 28.7281 27.0057 28.3182 26.7035 28.016C26.4013 27.7137 25.9914 27.544 25.564 27.544H8.80272C8.37532 27.544 7.96544 27.7137 7.66323 28.016C7.36101 28.3182 7.19122 28.7281 7.19122 29.1555C7.19122 29.5829 7.36101 29.9928 7.66323 30.295C7.96544 30.5972 8.37532 30.767 8.80272 30.767Z" fill="white"/>
<path d="M8.80272 40.1142H25.564C25.9914 40.1142 26.4013 39.9445 26.7035 39.6422C27.0057 39.34 27.1755 38.9301 27.1755 38.5027C27.1755 38.0753 27.0057 37.6654 26.7035 37.3632C26.4013 37.061 25.9914 36.8912 25.564 36.8912H8.80272C8.37532 36.8912 7.96544 37.061 7.66323 37.3632C7.36101 37.6654 7.19122 38.0753 7.19122 38.5027C7.19122 38.9301 7.36101 39.34 7.66323 39.6422C7.96544 39.9445 8.37532 40.1142 8.80272 40.1142Z" fill="white"/>
</g>
<defs>
<clipPath id="clip0">
<rect width="55" height="55" fill="white"/>
</clipPath>
</defs>
</svg>
