<svg width="19" height="14" viewBox="0 0 19 14" fill="none" xmlns="http://www.w3.org/2000/svg">
<path fill-rule="evenodd" clip-rule="evenodd" d="M6.40425 6.27654C6.35067 6.49588 6.32227 6.72509 6.32227 6.96094C6.32227 8.54822 7.60901 9.83496 9.19629 9.83496C9.58724 9.83496 9.95996 9.7569 10.2997 9.61551L9.05868 8.55177C8.36904 8.4929 7.80449 7.99567 7.64486 7.33992L6.40425 6.27654ZM10.7913 7.03396C10.7924 7.00975 10.793 6.98541 10.793 6.96094C10.793 6.07912 10.0781 5.36426 9.19629 5.36426C9.08797 5.36426 8.98218 5.37504 8.87991 5.3956L7.78472 4.45686C8.20165 4.22133 8.68327 4.08691 9.19629 4.08691C10.7836 4.08691 12.0703 5.37366 12.0703 6.96094C12.0703 7.31718 12.0055 7.65829 11.887 7.97311L10.7913 7.03396Z" fill="white"/>
<path opacity="0.7" fill-rule="evenodd" clip-rule="evenodd" d="M2.92016 3.29018C2.83663 3.37474 2.75533 3.45933 2.67628 3.54365C1.94508 4.3236 1.38652 5.10111 1.01069 5.68305C0.822373 5.97463 0.678891 6.21873 0.581603 6.39169C0.532935 6.47821 0.495756 6.54705 0.470238 6.59527C0.457477 6.61939 0.447626 6.63836 0.440706 6.65182L0.432526 6.66783L0.430088 6.67266L0.429283 6.67426L0.428984 6.67486C0.428864 6.6751 0.428755 6.67531 1 6.96094L0.428755 6.67531C0.338853 6.85512 0.338853 7.06676 0.428755 7.24656L1 6.96094C0.428755 7.24656 0.428864 7.24678 0.428984 7.24702L0.429283 7.24762L0.430088 7.24922L0.432526 7.25404L0.440706 7.27005C0.447626 7.28351 0.457477 7.30248 0.470238 7.3266C0.495756 7.37482 0.532935 7.44367 0.581603 7.53019C0.678891 7.70314 0.822373 7.94725 1.01069 8.23883C1.38652 8.82076 1.94508 9.59827 2.67628 10.3782C4.12703 11.9257 6.33322 13.5605 9.19629 13.5605C10.8234 13.5605 12.2383 13.0325 13.423 12.2926L12.3988 11.4147C11.4565 11.9396 10.3852 12.2832 9.19629 12.2832C6.84353 12.2832 4.95158 10.9376 3.60815 9.50459C2.94225 8.79431 2.42971 8.08158 2.0837 7.54584C1.93146 7.31011 1.81228 7.1099 1.7272 6.96094C1.81228 6.81197 1.93146 6.61177 2.0837 6.37604C2.42971 5.84029 2.94225 5.12757 3.60815 4.41728C3.7004 4.31888 3.79523 4.22089 3.89263 4.12372L2.92016 3.29018ZM14.2732 10.0184C14.4515 9.84988 14.622 9.67788 14.7844 9.50459C15.4503 8.79431 15.9629 8.08158 16.3089 7.54584C16.4611 7.31011 16.5803 7.1099 16.6654 6.96093C16.5803 6.81197 16.4611 6.61177 16.3089 6.37604C15.9629 5.84029 15.4503 5.12757 14.7844 4.41728C13.441 2.98429 11.549 1.63867 9.19629 1.63867C7.88465 1.63867 6.71623 2.05688 5.70622 2.67529L4.69409 1.80775C5.93282 0.97573 7.44112 0.361328 9.19629 0.361328C12.0594 0.361328 14.2655 1.99618 15.7163 3.54365C16.4475 4.3236 17.0061 5.10111 17.3819 5.68305C17.5702 5.97463 17.7137 6.21873 17.811 6.39169C17.8596 6.47821 17.8968 6.54705 17.9223 6.59527C17.9351 6.61939 17.945 6.63836 17.9519 6.65182L17.9601 6.66783L17.9625 6.67266L17.9633 6.67426L17.9636 6.67486C17.9637 6.6751 17.9638 6.67531 17.3926 6.96094C17.9638 7.24656 17.9637 7.24678 17.9636 7.24702L17.9633 7.24762L17.9625 7.24922L17.9601 7.25404L17.9519 7.27005C17.945 7.28351 17.9351 7.30248 17.9223 7.3266C17.8968 7.37482 17.8596 7.44367 17.811 7.53019C17.7137 7.70314 17.5702 7.94725 17.3819 8.23883C17.0061 8.82076 16.4475 9.59827 15.7163 10.3782C15.568 10.5364 15.4118 10.6956 15.2478 10.8537L14.2732 10.0184ZM17.3926 6.96094L17.9638 6.67531C18.0537 6.85512 18.0537 7.06676 17.9638 7.24656L17.3926 6.96094Z" fill="white"/>
<path d="M2 1L16 13" stroke="white" stroke-width="1.28" stroke-linecap="round" stroke-linejoin="round"/>
</svg>
