<svg width="55" height="55" viewBox="0 0 55 55" fill="none" xmlns="http://www.w3.org/2000/svg">
<g clip-path="url(#clip0)">
<path d="M54.9993 37.2211C54.9931 33.3367 53.7179 29.5608 51.3678 26.4681C49.0177 23.3753 45.7215 21.1352 41.9808 20.0886C41.8422 16.9003 40.9788 13.7855 39.4562 10.9808C37.9336 8.17612 35.7918 5.75532 33.1936 3.90227C30.5954 2.04923 27.609 0.812668 24.4614 0.286524C21.3138 -0.23962 18.0876 -0.0415111 15.028 0.865802C11.9683 1.77312 9.15572 3.36577 6.80375 5.52279C4.45178 7.67982 2.62231 10.3445 1.45431 13.3144C0.286304 16.2843 -0.189514 19.4813 0.0629936 22.6626C0.315501 25.8439 1.28969 28.9259 2.91158 31.6743L0.0763249 41.9236L10.3256 39.0883C13.2921 40.8409 16.6456 41.8337 20.0881 41.9786C20.8193 44.6075 22.1456 47.0329 23.9644 49.0671C25.7832 51.1013 28.0457 52.6896 30.5768 53.7092C33.1078 54.7288 35.8396 55.1523 38.5605 54.9469C41.2815 54.7416 43.9187 53.9128 46.2681 52.5248L54.9223 54.9201L52.5243 46.2686C54.1468 43.5307 55.0017 40.4063 54.9993 37.2238V37.2211ZM10.8343 35.6041L4.69907 37.3008L6.39582 31.1656L6.00807 30.5606C3.65373 26.868 2.74555 22.4361 3.45773 18.1151C4.16991 13.7941 6.4523 9.8882 9.86715 7.14647C13.282 4.40474 17.5888 3.02027 21.9617 3.2586C26.3345 3.49694 30.4653 5.34129 33.562 8.43792C36.6586 11.5346 38.503 15.6654 38.7413 20.0382C38.9796 24.411 37.5952 28.7179 34.8534 32.1327C32.1117 35.5476 28.2057 37.83 23.8847 38.5422C19.5637 39.2543 15.1319 38.3462 11.4393 35.9918L10.8343 35.6041ZM50.2996 50.3001L45.7456 49.0406L45.1378 49.4366C43.275 50.6446 41.1607 51.4107 38.9564 51.6763C36.7522 51.9418 34.5163 51.6998 32.42 50.9687C30.3236 50.2377 28.4221 49.0369 26.861 47.4582C25.2999 45.8795 24.1204 43.9647 23.4128 41.8603C28.1118 41.3077 32.4874 39.1874 35.833 35.8418C39.1786 32.4962 41.299 28.1206 41.8516 23.4216C43.9543 24.1314 45.8672 25.3121 47.4443 26.8736C49.0213 28.435 50.221 30.336 50.9518 32.4315C51.6826 34.5271 51.9252 36.7619 51.6611 38.9654C51.397 41.1689 50.6331 43.2831 49.4278 45.1466L49.0318 45.7543L50.2996 50.3001Z" fill="white"/>
<path d="M19.4398 29.1885H22.5252V32.274H19.4398V29.1885Z" fill="white"/>
<path d="M24.002 16.0105C24.0038 16.4393 23.9154 16.8636 23.7425 17.2559C23.5695 17.6482 23.316 17.9997 22.9983 18.2875L19.3737 21.604V25.3688H22.4592V22.9625L25.08 20.5618C25.8371 19.8689 26.4094 18.9981 26.7452 18.0283C27.0809 17.0584 27.1695 16.0202 27.0028 15.0075C26.8362 13.9948 26.4196 13.0396 25.7908 12.2285C25.162 11.4174 24.3408 10.7759 23.4016 10.3622C22.4624 9.94842 21.4348 9.77544 20.4119 9.85889C19.389 9.94235 18.4031 10.2796 17.5433 10.8402C16.6836 11.4007 15.9773 12.1668 15.4883 13.0691C14.9993 13.9714 14.743 14.9815 14.7427 16.0078H17.8283C17.8283 15.1894 18.1533 14.4046 18.732 13.826C19.3106 13.2473 20.0954 12.9223 20.9137 12.9223C21.7321 12.9223 22.5169 13.2473 23.0955 13.826C23.6742 14.4046 23.9993 15.1894 23.9993 16.0078L24.002 16.0105Z" fill="white"/>
</g>
<defs>
<clipPath id="clip0">
<rect width="55" height="55" fill="white"/>
</clipPath>
</defs>
</svg>
