<svg xmlns="http://www.w3.org/2000/svg" width="25.261" height="18.525" viewBox="0 0 25.261 18.525">
  <g id="cloud-storage-uploading-option" transform="translate(0 -73.091)">
    <path id="Caminho_984" data-name="Caminho 984" d="M24.162,83.425a4.98,4.98,0,0,0-2.809-1.783,3.363,3.363,0,0,0-2.829-5.184,3.215,3.215,0,0,0-2.184.816A6.744,6.744,0,0,0,10.1,73.091a6.49,6.49,0,0,0-4.763,1.974,6.489,6.489,0,0,0-1.973,4.763q0,.171.026.566A5.884,5.884,0,0,0,0,85.722a5.676,5.676,0,0,0,1.73,4.164,5.675,5.675,0,0,0,4.164,1.73H20.209a5.046,5.046,0,0,0,3.953-8.19Zm-7.447-.355a.405.405,0,0,1-.3.125H13.472v4.631a.427.427,0,0,1-.421.421H10.525a.427.427,0,0,1-.421-.421V83.2H7.157a.4.4,0,0,1-.421-.421.5.5,0,0,1,.131-.316l4.618-4.618a.446.446,0,0,1,.605,0l4.631,4.631a.409.409,0,0,1,.118.3A.4.4,0,0,1,16.715,83.07Z" transform="translate(0)" fill="#828e9e"/>
  </g>
</svg>
