<svg width="55" height="46" viewBox="0 0 55 46" fill="none" xmlns="http://www.w3.org/2000/svg">
<path d="M48.125 0H6.875C5.05164 0 3.30295 0.726953 2.01364 2.02093C0.724328 3.3149 0 5.06991 0 6.89986L0 16.0988C0 17.9287 0.724328 19.6837 2.01364 20.9777C3.30295 22.2717 5.05164 22.9986 6.875 22.9986H11.4592V43.6982C11.4589 44.0004 11.5179 44.2996 11.6328 44.5789C11.7478 44.8581 11.9165 45.1119 12.1292 45.3257C12.342 45.5394 12.5946 45.709 12.8727 45.8247C13.1508 45.9404 13.4489 46 13.75 46H41.25C41.8575 46 42.4402 45.7578 42.8698 45.3266C43.2994 44.8955 43.5408 44.3107 43.5408 43.701V22.9986H48.125C49.9484 22.9986 51.697 22.2717 52.9864 20.9777C54.2757 19.6837 55 17.9287 55 16.0988V6.89986C55 5.06991 54.2757 3.3149 52.9864 2.02093C51.697 0.726953 49.9484 0 48.125 0ZM38.9592 41.3992H16.0408V13.7997H38.9565V41.3992H38.9592ZM50.4158 16.0988C50.415 16.7083 50.1734 17.2926 49.744 17.7236C49.3146 18.1546 48.7323 18.3971 48.125 18.3978H43.5408V13.7997H45.8315C46.4394 13.7997 47.0224 13.5574 47.4523 13.126C47.8821 12.6945 48.1236 12.1094 48.1236 11.4993C48.1236 10.8892 47.8821 10.3041 47.4523 9.87267C47.0224 9.44126 46.4394 9.1989 45.8315 9.1989H9.16575C8.55784 9.1989 7.97483 9.44126 7.54497 9.87267C7.11512 10.3041 6.87363 10.8892 6.87363 11.4993C6.87363 12.1094 7.11512 12.6945 7.54497 13.126C7.97483 13.5574 8.55784 13.7997 9.16575 13.7997H11.4565V18.4006H6.875C6.2679 18.3991 5.68608 18.1564 5.2568 17.7256C4.82751 17.2947 4.5857 16.7108 4.58425 16.1015V6.89986C4.5857 6.29057 4.82751 5.70665 5.2568 5.27581C5.68608 4.84497 6.2679 4.60229 6.875 4.60083H48.125C48.7323 4.60156 49.3146 4.84402 49.744 5.27501C50.1734 5.70601 50.415 6.29034 50.4158 6.89986V16.0988Z" fill="white"/>
<path d="M28.534 25.0465V21.1384C29.3811 21.3589 30.1911 21.7039 30.9375 22.1624C31.0927 22.1938 31.2526 22.1938 31.4078 22.1624C31.7538 22.169 32.0882 22.0376 32.3378 21.797C32.5873 21.5564 32.7315 21.2262 32.7387 20.879C32.7342 20.628 32.6417 20.3866 32.4775 20.1973C31.3943 19.2027 30.0001 18.6173 28.534 18.5413V17.1614C28.5268 16.9224 28.4272 16.6957 28.2562 16.5292C28.0853 16.3628 27.8564 16.2698 27.6182 16.2699H27.5908C27.4709 16.2666 27.3515 16.287 27.2394 16.33C27.1274 16.3731 27.0249 16.4378 26.9378 16.5206C26.8507 16.6034 26.7808 16.7026 26.7319 16.8125C26.683 16.9225 26.6562 17.041 26.653 17.1614V18.5247C25.427 18.4876 24.2351 18.933 23.3318 19.7658C22.4285 20.5986 21.8854 21.7529 21.8185 22.9821C21.8185 25.9959 24.2935 26.846 26.653 27.4394V31.8553C25.5567 31.7011 24.5206 31.2583 23.65 30.5719C23.4323 30.4038 23.1657 30.3117 22.891 30.3097C22.5537 30.3233 22.2347 30.4674 22.0009 30.7118C21.7671 30.9562 21.6367 31.2819 21.637 31.6207C21.6382 31.8806 21.7307 32.1318 21.8982 32.33C23.1878 33.5463 24.8835 34.2354 26.653 34.262V35.5923C26.6743 35.8301 26.7843 36.0511 26.9611 36.2109C27.1379 36.3707 27.3683 36.4576 27.6062 36.4541C27.8442 36.4506 28.072 36.357 28.244 36.1921C28.4161 36.0271 28.5196 35.803 28.534 35.5647V34.2537C29.7964 34.3022 31.0265 33.8463 31.9545 32.9859C32.8824 32.1254 33.4325 30.9308 33.484 29.6639C33.4702 26.5948 30.8852 25.6758 28.534 25.0465ZM26.653 24.4697C25.4513 24.1302 24.5905 23.8156 24.5905 22.7916C24.5905 21.7677 25.399 21.0611 26.653 20.9287V24.4697ZM28.534 31.8387V27.9334C29.7632 28.3005 30.6762 28.9822 30.6762 29.846C30.6762 30.7099 30.074 31.6014 28.534 31.8387Z" fill="white"/>
</svg>
