<svg width="38" height="39" viewBox="0 0 38 39" fill="none" xmlns="http://www.w3.org/2000/svg">
<path d="M22.3055 19.6017L36.3568 5.2558C36.774 4.80393 37.0023 4.20389 36.9933 3.58301C36.9843 2.96212 36.7388 2.36924 36.3087 1.93016C35.8786 1.49107 35.2979 1.24034 34.6898 1.23116C34.0816 1.22199 33.4939 1.45508 33.0513 1.88099L19 16.2269L4.94872 1.88099C4.50613 1.45508 3.91841 1.22199 3.31028 1.23116C2.70214 1.24034 2.12143 1.49107 1.69137 1.93016C1.2613 2.36924 1.01572 2.96212 1.00673 3.58301C0.997736 4.20389 1.22604 4.80393 1.64321 5.2558L15.6945 19.6017L1.64321 33.9476C1.41551 34.1667 1.2332 34.4302 1.10708 34.7226C0.980957 35.0149 0.913588 35.3302 0.908962 35.6496C0.904337 35.969 0.962548 36.2861 1.08015 36.5822C1.19775 36.8782 1.37235 37.1471 1.5936 37.373C1.81485 37.5989 2.07826 37.7772 2.36822 37.8972C2.65817 38.0173 2.96878 38.0767 3.28165 38.072C3.59451 38.0673 3.90327 37.9985 4.18962 37.8697C4.47597 37.741 4.73411 37.5549 4.94872 37.3224L19 22.9765L33.0513 37.3224C33.2659 37.5549 33.5241 37.741 33.8104 37.8697C34.0968 37.9985 34.4055 38.0673 34.7184 38.072C35.0313 38.0767 35.3419 38.0173 35.6318 37.8972C35.9218 37.7772 36.1852 37.5989 36.4064 37.373C36.6277 37.1471 36.8023 36.8782 36.9199 36.5822C37.0375 36.2861 37.0957 35.969 37.0911 35.6496C37.0865 35.3302 37.0191 35.0149 36.893 34.7226C36.7669 34.4302 36.5845 34.1667 36.3568 33.9476L22.3055 19.6017Z" fill="white" stroke="white"/>
</svg>
