<svg width="54" height="48" viewBox="0 0 54 48" fill="none" xmlns="http://www.w3.org/2000/svg">
<path d="M48.7755 11.4288H33.0966C32.6347 11.4288 32.1918 11.6122 31.8652 11.9388C31.5386 12.2653 31.3551 12.7081 31.3551 13.1699C31.3551 13.6317 31.5386 14.0745 31.8652 14.401C32.1918 14.7275 32.6347 14.911 33.0966 14.911H40.1895C40.5695 17.5143 41.7799 19.9254 43.6406 21.7857C45.5014 23.646 47.9131 24.8561 50.517 25.236V34.1925C47.9131 34.5724 45.5014 35.7825 43.6406 37.6428C41.7799 39.5031 40.5695 41.9142 40.1895 44.5175H13.8105C13.4305 41.9142 12.2201 39.5031 10.3594 37.6428C8.49861 35.7825 6.08692 34.5724 3.483 34.1925V25.236C6.08692 24.8561 8.49861 23.646 10.3594 21.7857C12.2201 19.9254 13.4305 17.5143 13.8105 14.911H20.9034C21.3653 14.911 21.8082 14.7275 22.1348 14.401C22.4614 14.0745 22.6449 13.6317 22.6449 13.1699C22.6449 12.7081 22.4614 12.2653 22.1348 11.9388C21.8082 11.6122 21.3653 11.4288 20.9034 11.4288H5.2245C3.83953 11.4309 2.51191 11.9819 1.53259 12.961C0.553267 13.9401 0.00214226 15.2674 0 16.6521L0 42.7738C0.00214226 44.1584 0.553267 45.4857 1.53259 46.4648C2.51191 47.4439 3.83953 47.9949 5.2245 47.997H48.7755C50.16 47.9949 51.4872 47.4443 52.4665 46.4658C53.4457 45.4872 53.9971 44.1606 54 42.7765V16.6521C53.9979 15.2674 53.4467 13.9401 52.4674 12.961C51.4881 11.9819 50.1605 11.4309 48.7755 11.4288V11.4288ZM43.7238 14.911H48.7755C49.2372 14.9117 49.6797 15.0953 50.0061 15.4217C50.3326 15.7481 50.5163 16.1905 50.517 16.6521V21.7026C48.8446 21.3582 47.3099 20.5314 46.1026 19.3244C44.8952 18.1173 44.0682 16.5829 43.7238 14.911V14.911ZM5.2272 14.911H10.2762C9.9318 16.5829 9.1048 18.1173 7.89745 19.3244C6.6901 20.5314 5.15536 21.3582 3.483 21.7026V16.6521C3.48371 16.1905 3.66742 15.7481 3.99386 15.4217C4.3203 15.0953 4.76284 14.9117 5.2245 14.911H5.2272ZM3.483 42.7765V37.726C5.15536 38.0703 6.6901 38.8971 7.89745 40.1041C9.1048 41.3112 9.9318 42.8456 10.2762 44.5175H5.2245C4.76284 44.5168 4.3203 44.3332 3.99386 44.0068C3.66742 43.6804 3.48371 43.238 3.483 42.7765V42.7765ZM48.7728 44.5175H43.7238C44.0682 42.8456 44.8952 41.3112 46.1026 40.1041C47.3099 38.8971 48.8446 38.0703 50.517 37.726V42.7765C50.5163 43.238 50.3326 43.6804 50.0061 44.0068C49.6797 44.3332 49.2372 44.5168 48.7755 44.5175H48.7728ZM17.4204 29.7143C17.4204 31.6085 17.9822 33.4602 19.0349 35.0351C20.0875 36.6101 21.5836 37.8377 23.334 38.5625C25.0845 39.2874 27.0106 39.4771 28.8689 39.1076C30.7271 38.738 32.4341 37.8259 33.7738 36.4865C35.1135 35.147 36.0259 33.4405 36.3955 31.5827C36.7652 29.7249 36.5755 27.7992 35.8504 26.0492C35.1253 24.2991 33.8975 22.8034 32.3221 21.751C30.7468 20.6986 28.8947 20.1369 27 20.1369C24.4602 20.1398 22.0253 21.1497 20.2294 22.9452C18.4335 24.7407 17.4233 27.1751 17.4204 29.7143V29.7143ZM33.0966 29.7143C33.0966 30.9198 32.739 32.0982 32.0691 33.1005C31.3992 34.1029 30.4471 34.8841 29.3331 35.3454C28.2191 35.8068 26.9932 35.9275 25.8106 35.6923C24.628 35.4571 23.5417 34.8766 22.6891 34.0242C21.8364 33.1718 21.2558 32.0857 21.0205 30.9034C20.7853 29.721 20.906 28.4955 21.3675 27.3817C21.8289 26.268 22.6103 25.3161 23.6129 24.6463C24.6155 23.9766 25.7942 23.6191 27 23.6191C28.6163 23.6212 30.1657 24.2641 31.3086 25.4067C32.4515 26.5493 33.0945 28.0984 33.0966 29.7143ZM13.0653 27.9732C13.5272 27.9732 13.9701 28.1566 14.2967 28.4831C14.6233 28.8096 14.8068 29.2525 14.8068 29.7143C14.8068 30.176 14.6233 30.6189 14.2967 30.9454C13.9701 31.2719 13.5272 31.4553 13.0653 31.4553H12.1932C11.7313 31.4553 11.2884 31.2719 10.9618 30.9454C10.6352 30.6189 10.4517 30.176 10.4517 29.7143C10.4517 29.2525 10.6352 28.8096 10.9618 28.4831C11.2884 28.1566 11.7313 27.9732 12.1932 27.9732H13.0653ZM40.9374 31.4553C40.4755 31.4553 40.0326 31.2719 39.706 30.9454C39.3794 30.6189 39.1959 30.176 39.1959 29.7143C39.1959 29.2525 39.3794 28.8096 39.706 28.4831C40.0326 28.1566 40.4755 27.9732 40.9374 27.9732H41.8095C42.2714 27.9732 42.7143 28.1566 43.0409 28.4831C43.3675 28.8096 43.551 29.2525 43.551 29.7143C43.551 30.176 43.3675 30.6189 43.0409 30.9454C42.7143 31.2719 42.2714 31.4553 41.8095 31.4553H40.9374ZM22.1751 6.56455C21.8486 6.23805 21.6653 5.7953 21.6653 5.33365C21.6653 4.87199 21.8486 4.42924 22.1751 4.10274L25.7688 0.509891C26.0954 0.183513 26.5382 0.000167847 27 0.000167847C27.4618 0.000167847 27.9046 0.183513 28.2312 0.509891L31.8249 4.10274C32.1412 4.43129 32.3159 4.87077 32.3115 5.32673C32.3071 5.78269 32.124 6.21875 31.8015 6.54117C31.479 6.8636 31.0429 7.04667 30.5868 7.05105C30.1307 7.05542 29.6911 6.88074 29.3625 6.56455L28.7442 5.9464V14.2604C28.7442 14.7222 28.5607 15.165 28.2341 15.4916C27.9075 15.8181 27.4646 16.0015 27.0027 16.0015C26.5408 16.0015 26.0979 15.8181 25.7713 15.4916C25.4447 15.165 25.2612 14.7222 25.2612 14.2604V5.93831L24.6429 6.55646C24.3163 6.88284 23.8735 7.06618 23.4117 7.06618C22.9499 7.06618 22.5071 6.88284 22.1805 6.55646L22.1751 6.56455Z" fill="white"/>
</svg>
