<svg xmlns="http://www.w3.org/2000/svg" width="30.944" height="22.692" viewBox="0 0 30.944 22.692">
  <path id="Caminho_878" data-name="Caminho 878" d="M29.6,85.75a6.1,6.1,0,0,0-3.441-2.184,4.119,4.119,0,0,0-3.465-6.35,3.939,3.939,0,0,0-2.675,1,8.261,8.261,0,0,0-7.639-5.125,7.951,7.951,0,0,0-5.834,2.418,7.949,7.949,0,0,0-2.417,5.834q0,.209.032.693A7.207,7.207,0,0,0,0,88.563a6.953,6.953,0,0,0,2.119,5.1,6.952,6.952,0,0,0,5.1,2.12H24.755A6.182,6.182,0,0,0,29.6,85.75Zm-9.13.62-5.657,5.657a.547.547,0,0,1-.741,0L8.4,86.355a.5.5,0,0,1-.145-.371.522.522,0,0,1,.515-.516h3.61V79.8a.522.522,0,0,1,.516-.516h3.095a.522.522,0,0,1,.516.516v5.673h3.61a.5.5,0,0,1,.515.516A.6.6,0,0,1,20.468,86.371Z" transform="translate(0 -73.091)" fill="#e2e7ee"/>
</svg>
