<svg width="55" height="55" viewBox="0 0 55 55" fill="none" xmlns="http://www.w3.org/2000/svg">
<g clip-path="url(#clip0)">
<path d="M41.5607 17.8399C41.2922 17.928 41.009 17.9623 40.7273 17.9408C40.4455 17.9194 40.1707 17.8426 39.9187 17.7149C39.6666 17.5872 39.4422 17.411 39.2582 17.1965C39.0742 16.982 38.9343 16.7333 38.8465 16.4646C37.9397 13.7177 36.3749 11.2344 34.2884 9.23121C32.2019 7.22801 29.6571 5.76578 26.876 4.97202C24.0948 4.17826 21.1617 4.07707 18.3325 4.67729C15.5032 5.2775 12.8638 6.56089 10.6443 8.41553C8.42472 10.2702 6.69252 12.6398 5.5987 15.3177C4.50489 17.9955 4.08267 20.9004 4.36888 23.779C4.65508 26.6575 5.64101 29.4223 7.2407 31.8323C8.84038 34.2423 11.0052 36.2243 13.5465 37.6054C14.0472 37.8775 14.4193 38.3374 14.581 38.8839C14.7427 39.4304 14.6807 40.0188 14.4086 40.5196C14.1366 41.0204 13.6768 41.3926 13.1304 41.5543C12.5839 41.716 11.9957 41.654 11.495 41.3819C8.33774 39.6652 5.64836 37.202 3.66139 34.207C1.67443 31.2121 0.450223 27.7764 0.0955546 24.1997C-0.259114 20.6229 0.266522 17.0136 1.62662 13.6867C2.98672 10.3597 5.13997 7.41612 7.89858 5.1126C10.6572 2.80907 13.9374 1.21558 17.4531 0.471107C20.9687 -0.273369 24.6131 -0.146223 28.0684 0.841457C31.5237 1.82914 34.6849 3.64735 37.2763 6.13753C39.8678 8.62771 41.8107 11.7142 42.9357 15.1279C43.0238 15.3962 43.058 15.6793 43.0365 15.961C43.0151 16.2426 42.9383 16.5172 42.8106 16.7691C42.6828 17.021 42.5067 17.2452 42.2923 17.429C42.0778 17.6127 41.8292 17.7524 41.5607 17.8399ZM28.1132 25.2444C28.1066 24.5073 27.9442 23.78 27.6366 23.1102C27.329 22.4403 26.8832 21.8432 26.3285 21.3579C25.2151 20.3893 23.7863 19.861 22.3107 19.8726C21.2685 19.8726 20.482 19.4105 20.482 18.7971C20.482 18.5119 20.5953 18.2383 20.7969 18.0366C20.9986 17.8349 21.2721 17.7216 21.5572 17.7216C22.6938 17.7357 23.816 17.9779 24.8572 18.434C25.1202 18.5364 25.4006 18.586 25.6827 18.58C25.9648 18.574 26.2429 18.5125 26.5012 18.3989C26.7595 18.2854 26.9929 18.1221 27.1881 17.9183C27.3833 17.7146 27.5365 17.4744 27.6389 17.2114C27.7412 16.9485 27.7908 16.6679 27.7848 16.3858C27.7788 16.1036 27.7173 15.8255 27.6038 15.5671C27.4903 15.3088 27.327 15.0753 27.1233 14.8801C26.9196 14.6848 26.6794 14.5316 26.4165 14.4292C25.8097 14.1909 25.19 13.987 24.5602 13.8186V13.3208C24.5602 12.7503 24.3337 12.2032 23.9304 11.7998C23.5271 11.3964 22.9801 11.1698 22.4097 11.1698C21.8394 11.1698 21.2924 11.3964 20.8891 11.7998C20.4858 12.2032 20.2592 12.7503 20.2592 13.3208V13.5958C13.9067 15.5212 15.2432 24.2019 22.3025 24.1799C23.1275 24.1799 23.8067 24.6723 23.8067 25.2554C23.796 25.5468 23.6718 25.8224 23.4606 26.0233C23.2494 26.2243 22.968 26.3346 22.6765 26.3309C21.4165 26.2603 20.1769 25.9815 19.008 25.5057C18.7458 25.4013 18.4656 25.3496 18.1835 25.3535C17.9013 25.3574 17.6227 25.4169 17.3635 25.5285C17.1043 25.6401 16.8696 25.8017 16.6729 26.004C16.4761 26.2063 16.3211 26.4454 16.2167 26.7077C16.1124 26.9699 16.0607 27.2502 16.0646 27.5324C16.0685 27.8146 16.1279 28.0933 16.2395 28.3525C16.3511 28.6118 16.5127 28.8465 16.715 29.0433C16.9172 29.2401 17.1563 29.3951 17.4185 29.4995C18.338 29.8621 19.2877 30.1428 20.2565 30.3384V30.6135C20.2565 31.1839 20.4831 31.731 20.8864 32.1344C21.2897 32.5378 21.8366 32.7644 22.407 32.7644C22.9773 32.7644 23.5243 32.5378 23.9276 32.1344C24.3309 31.731 24.5575 31.1839 24.5575 30.6135V30.2834C25.595 29.9091 26.4925 29.225 27.1285 28.3238C27.7644 27.4225 28.1082 26.3475 28.1132 25.2444V25.2444ZM52.8357 40.6062C52.2659 40.6062 51.7193 40.8325 51.3161 41.2352C50.9129 41.638 50.686 42.1844 50.6852 42.7544V52.8517C50.6852 53.4221 50.9118 53.9692 51.3151 54.3726C51.7184 54.776 52.2654 55.0026 52.8357 55.0026C53.4061 55.0026 53.9531 54.776 54.3564 54.3726C54.7597 53.9692 54.9862 53.4221 54.9862 52.8517V42.7544C54.9855 42.1844 54.7586 41.638 54.3554 41.2352C53.9522 40.8325 53.4056 40.6062 52.8357 40.6062V40.6062ZM44.2337 43.0817C43.6639 43.0817 43.1173 43.3079 42.7141 43.7107C42.3109 44.1135 42.084 44.6599 42.0832 45.2299V52.8572C42.0832 53.4276 42.3098 53.9747 42.7131 54.3781C43.1164 54.7815 43.6634 55.0081 44.2337 55.0081C44.8041 55.0081 45.3511 54.7815 45.7544 54.3781C46.1577 53.9747 46.3842 53.4276 46.3842 52.8572V45.2244C46.3835 44.6563 46.1581 44.1116 45.7573 43.7091C45.3565 43.3066 44.8127 43.0791 44.2447 43.0762L44.2337 43.0817ZM35.6317 47.8072C35.0619 47.8072 34.5153 48.0334 34.1121 48.4362C33.7089 48.839 33.482 49.3853 33.4812 49.9553V52.8544C33.4812 53.4249 33.7078 53.972 34.1111 54.3753C34.5144 54.7787 35.0614 55.0053 35.6317 55.0053C36.2021 55.0053 36.7491 54.7787 37.1524 54.3753C37.5557 53.972 37.7822 53.4249 37.7822 52.8544V49.9498C37.7815 49.3817 37.5561 48.837 37.1553 48.4345C36.7545 48.0321 36.2107 47.8046 35.6427 47.8017L35.6317 47.8072ZM27.0297 45.9808C26.4599 45.9808 25.9133 46.207 25.5101 46.6098C25.1069 47.0126 24.88 47.559 24.8792 48.129V52.8544C24.8792 53.4249 25.1058 53.972 25.5091 54.3753C25.9124 54.7787 26.4594 55.0053 27.0297 55.0053C27.6001 55.0053 28.1471 54.7787 28.5504 54.3753C28.9537 53.972 29.1802 53.4249 29.1802 52.8544V48.1345C29.1813 47.852 29.1268 47.5721 29.0197 47.3107C28.9126 47.0493 28.7551 46.8116 28.5562 46.6111C28.3573 46.4106 28.1208 46.2513 27.8603 46.1422C27.5998 46.0331 27.3204 45.9764 27.038 45.9753L27.0297 45.9808ZM10.8652 55.0108C10.4409 55.0085 10.0268 54.8808 9.67477 54.6439C9.32276 54.4069 9.0486 54.0712 8.88672 53.6789C8.72484 53.2866 8.68244 52.8552 8.76487 52.4388C8.84729 52.0225 9.05085 51.6399 9.34999 51.3389L21.8212 38.9614L21.8982 38.8871C23.2128 37.7019 24.9033 37.0186 26.6721 36.9577C28.4409 36.8969 30.1744 37.4622 31.5672 38.5543L31.7487 38.6863L31.812 38.7358C32.4561 39.2426 33.2685 39.4861 34.0851 39.4171C34.9018 39.3482 35.6618 38.972 36.212 38.3645L36.2422 38.3315L43.8625 30.2284C44.2582 29.838 44.7897 29.6161 45.3454 29.6091C45.9012 29.6021 46.4381 29.8106 46.8435 30.1909C47.2489 30.5711 47.4914 31.0936 47.5201 31.6488C47.5488 32.2039 47.3615 32.7487 46.9975 33.1687L39.391 41.2581C38.1111 42.6627 36.349 43.5331 34.4559 43.6957C32.5628 43.8584 30.6781 43.3013 29.1775 42.1355L28.996 42.0035L28.9327 41.954C28.342 41.4852 27.6056 41.2387 26.8518 41.2573C26.098 41.2758 25.3746 41.5584 24.8077 42.0558L12.3805 54.3755C12.1821 54.5758 11.9461 54.735 11.6861 54.844C11.4261 54.953 11.1472 55.0097 10.8652 55.0108V55.0108ZM55 34.1727V28.3608C54.9978 26.6501 54.3168 25.0102 53.1067 23.8013C51.8965 22.5925 50.2561 21.9135 48.5457 21.9135H42.7405C42.1709 21.9135 41.6246 22.1398 41.2218 22.5427C40.819 22.9455 40.5927 23.4919 40.5927 24.0617C40.5927 24.6314 40.819 25.1778 41.2218 25.5806C41.6246 25.9835 42.1709 26.2098 42.7405 26.2098H48.5457C49.1156 26.2098 49.6622 26.4361 50.0654 26.8389C50.4686 27.2416 50.6955 27.788 50.6962 28.358V34.1589C50.6962 34.7294 50.9228 35.2765 51.3261 35.6799C51.7294 36.0832 52.2764 36.3099 52.8467 36.3099C53.4171 36.3099 53.9641 36.0832 54.3674 35.6799C54.7707 35.2765 54.9972 34.7294 54.9972 34.1589L55 34.1727Z" fill="white"/>
</g>
<defs>
<clipPath id="clip0">
<rect width="55" height="55" fill="white"/>
</clipPath>
</defs>
</svg>
