<svg width="55" height="55" viewBox="0 0 55 55" fill="none" xmlns="http://www.w3.org/2000/svg">
<g clip-path="url(#clip0)">
<path d="M25.1075 35.4146C23.8308 35.0703 22.6677 34.3948 21.736 33.4565C21.5632 33.2694 21.3535 33.1201 21.1202 33.0179C20.8869 32.9158 20.635 32.8631 20.3803 32.8631C20.1256 32.8631 19.8736 32.9158 19.6403 33.0179C19.4069 33.1201 19.1973 33.2694 19.0245 33.4565L18.8788 33.6105C18.5139 34.0041 18.3131 34.522 18.3171 35.0587C18.3212 35.5953 18.53 36.1101 18.9007 36.4981C20.6271 38.2121 22.8323 39.3626 25.2257 39.798L25.4567 39.8393V41.7643C25.4502 42.0236 25.4947 42.2817 25.5879 42.5238C25.6811 42.7658 25.8211 42.9872 25.9999 43.1752C26.1787 43.3631 26.3927 43.514 26.6298 43.6192C26.8669 43.7244 27.1224 43.7819 27.3817 43.7883H27.599C27.8583 43.7819 28.1138 43.7244 28.3509 43.6192C28.588 43.514 28.8021 43.3631 28.9809 43.1752C29.1596 42.9872 29.2996 42.7658 29.3928 42.5238C29.486 42.2817 29.5306 42.0236 29.524 41.7643V39.8091L29.7495 39.7623C31.4804 39.5801 33.0831 38.7653 34.2503 37.4743C35.4175 36.1832 36.0671 34.5067 36.0745 32.7663C36.0797 30.9466 35.4453 29.1829 34.2821 27.7835C33.119 26.384 31.501 25.4379 29.711 25.1103L29.5157 25.0443V18.48L29.854 18.557C30.6546 18.7284 31.4213 19.0313 32.1227 19.4536C32.4183 19.6364 32.7597 19.7317 33.1072 19.7286C33.4382 19.7267 33.7629 19.6378 34.0487 19.4708C34.3344 19.3038 34.5712 19.0645 34.7353 18.7771L34.8315 18.6121C35.1032 18.1465 35.1887 17.5953 35.0708 17.0693C34.956 16.5509 34.6431 16.098 34.199 15.807C32.8395 14.9758 31.3277 14.4242 29.7522 14.1846L29.5157 14.1461V12.6996C29.5223 12.4402 29.4778 12.1822 29.3846 11.9401C29.2914 11.698 29.1514 11.4767 28.9726 11.2887C28.7939 11.1007 28.5798 10.9498 28.3427 10.8446C28.1056 10.7394 27.8501 10.682 27.5908 10.6756H27.3735C27.1142 10.682 26.8587 10.7394 26.6216 10.8446C26.3845 10.9498 26.1704 11.1007 25.9916 11.2887C25.8129 11.4767 25.6729 11.698 25.5797 11.9401C25.4865 12.1822 25.4419 12.4402 25.4485 12.6996V14.2533L25.2257 14.3001C23.6268 14.483 22.1498 15.244 21.0726 16.4397C19.9954 17.6354 19.3922 19.1835 19.3765 20.7928C19.3742 22.5028 19.9565 24.1622 21.0269 25.4957C22.0974 26.8292 23.5915 27.7567 25.2615 28.1243L25.4513 28.1931V35.5135L25.1075 35.4146ZM29.5075 29.5763L29.898 29.7578C30.5367 29.9414 31.094 30.3368 31.4783 30.879C31.8626 31.4212 32.0511 32.0781 32.0128 32.7416C31.9997 33.3487 31.7809 33.9334 31.3923 34.4C31.0036 34.8666 30.468 35.1875 29.8733 35.3101L29.5075 35.4365V29.5736V29.5763ZM25.047 23.3833C24.5473 23.1707 24.1248 22.8099 23.8367 22.3496C23.5485 21.8893 23.4085 21.3517 23.4355 20.8093C23.4545 20.3401 23.6259 19.8898 23.9236 19.5266C24.2213 19.1634 24.6291 18.9071 25.0855 18.7963L25.4595 18.6506V23.6171L25.047 23.3833Z" fill="white"/>
<path d="M54.329 9.69104C54.0527 9.47021 53.7172 9.33617 53.3648 9.30582C53.0124 9.27548 52.659 9.35019 52.349 9.52054L48.5815 11.594C45.5829 6.98629 41.1757 3.47082 36.0167 1.57153C30.8577 -0.327757 25.2231 -0.509169 19.9525 1.05433C14.682 2.61783 10.0578 5.84253 6.76908 10.2479C3.48032 14.6532 1.70309 20.0033 1.70226 25.5008C1.725 26.2248 2.02861 26.9116 2.54882 27.4157C3.06902 27.9198 3.76499 28.2017 4.48938 28.2017C5.21378 28.2017 5.90974 27.9198 6.42994 27.4157C6.95015 26.9116 7.25376 26.2248 7.27651 25.5008C7.276 21.2392 8.64156 17.0897 11.1728 13.6613C13.704 10.2329 17.2675 7.70612 21.3403 6.45188C25.4131 5.19764 29.7807 5.28197 33.8021 6.6925C37.8235 8.10303 41.2868 10.7655 43.6838 14.289L40.1555 16.2333C39.8458 16.4043 39.5938 16.6632 39.4311 16.9774C39.2685 17.2916 39.2026 17.6469 39.2417 17.9985C39.2808 18.3501 39.4233 18.6822 39.651 18.9529C39.8787 19.2236 40.1815 19.4208 40.5213 19.5195L49.973 22.2695C50.4288 22.4013 50.9183 22.3467 51.334 22.1178C51.7496 21.8888 52.0573 21.5042 52.1895 21.0485L54.9395 11.5968C55.0391 11.2545 55.0342 10.8902 54.9254 10.5507C54.8166 10.2111 54.609 9.9118 54.329 9.69104Z" fill="white"/>
<path d="M50.5092 26.7108C50.1429 26.7104 49.7802 26.7823 49.4417 26.9223C49.1032 27.0623 48.7957 27.2677 48.5367 27.5267C48.2777 27.7857 48.0723 28.0933 47.9323 28.4318C47.7923 28.7702 47.7204 29.133 47.7207 29.4993C47.7212 33.7609 46.3557 37.9104 43.8245 41.3388C41.2933 44.7672 37.7298 47.294 33.6569 48.5482C29.5841 49.8025 25.2165 49.7181 21.1951 48.3076C17.1738 46.897 13.7104 44.2346 11.3135 40.711L14.8417 38.7696C15.1514 38.5985 15.4035 38.3396 15.5661 38.0254C15.7288 37.7113 15.7947 37.356 15.7555 37.0044C15.7164 36.6528 15.574 36.3207 15.3463 36.0499C15.1185 35.7792 14.8157 35.582 14.476 35.4833L5.02424 32.7333C4.5684 32.6015 4.0789 32.6561 3.66329 32.8851C3.24768 33.114 2.93996 33.4986 2.80774 33.9543L0.0577413 43.406C-0.0403269 43.7459 -0.0354926 44.1073 0.0716339 44.4445C0.178761 44.7816 0.383377 45.0795 0.659651 45.3004C0.935925 45.5214 1.27147 45.6555 1.62393 45.6859C1.97638 45.7163 2.32995 45.6417 2.63999 45.4713L6.40749 43.3978C9.40619 48.0058 13.8136 51.5213 18.9729 53.4206C24.1322 55.3198 29.7671 55.501 35.0378 53.9371C40.3084 52.3733 44.9326 49.1481 48.2211 44.7423C51.5097 40.3366 53.2865 34.9861 53.2867 29.4883C53.2838 28.7526 52.9903 28.0478 52.47 27.5275C51.9498 27.0073 51.245 26.7137 50.5092 26.7108V26.7108Z" fill="white"/>
</g>
<defs>
<clipPath id="clip0">
<rect width="55" height="55" fill="white"/>
</clipPath>
</defs>
</svg>
