<svg width="54" height="55" viewBox="0 0 54 55" fill="none" xmlns="http://www.w3.org/2000/svg">
<g clip-path="url(#clip0)">
<path d="M42.714 27.6066C41.0585 27.6414 39.4823 28.3357 38.3236 29.5405C37.1649 30.7453 36.5159 32.3647 36.5159 34.0512C36.5159 35.7377 37.1649 37.3571 38.3236 38.5619C39.4823 39.7667 41.0585 40.461 42.714 40.4958H51.678H51.7833H51.8886C52.1655 40.4962 52.4398 40.441 52.6958 40.3334C52.9518 40.2258 53.1844 40.0679 53.3805 39.8687C53.5765 39.6695 53.7322 39.433 53.8385 39.1725C53.9448 38.9121 53.9997 38.6329 54 38.3508V21.4851C53.9982 20.1246 53.679 18.7841 53.0688 17.574C52.4585 16.3639 51.5746 15.3188 50.49 14.5248L43.3269 2.53482C43.1822 2.29244 42.9919 2.08164 42.7668 1.91461C42.5417 1.74758 42.2863 1.62762 42.0154 1.56165C41.7446 1.49569 41.4636 1.48502 41.1886 1.53028C40.9137 1.57553 40.6503 1.67581 40.4136 1.82532L35.1216 5.16932L32.7348 1.04432C32.5928 0.799591 32.4045 0.586014 32.1808 0.41597C31.9571 0.245927 31.7026 0.122802 31.4318 0.0537339C31.1611 -0.015334 30.8795 -0.0289702 30.6036 0.013616C30.3276 0.0562021 30.0627 0.154163 29.8242 0.301819L9.50401 12.8913H6.32881C5.77853 12.8908 5.25019 12.6715 4.85633 12.2801C4.46246 11.8887 4.23418 11.3561 4.22011 10.7958C4.23418 10.2355 4.46246 9.70298 4.85633 9.31158C5.25019 8.92017 5.77853 8.70085 6.32881 8.70032H10.2303C10.7896 8.70032 11.3259 8.47404 11.7214 8.07126C12.1168 7.66848 12.339 7.12219 12.339 6.55257C12.339 5.98295 12.1168 5.43666 11.7214 5.03388C11.3259 4.6311 10.7896 4.40482 10.2303 4.40482H6.32881C4.90694 4.40647 3.5269 4.89491 2.41042 5.79166C1.29395 6.68842 0.505867 7.94141 0.172807 9.34932C0.0580957 9.61927 -0.000729231 9.91042 6.82298e-06 10.2046V46.4056C0.00286455 48.6839 0.89273 50.868 2.47445 52.479C4.05617 54.0901 6.20062 54.9964 8.43751 54.9993H45.5625C47.3337 55.0013 49.0605 54.4349 50.4976 53.3804C51.9347 52.326 53.009 50.8371 53.568 49.1253C53.6556 48.8577 53.6906 48.5752 53.6709 48.2938C53.6513 48.0124 53.5774 47.7378 53.4536 47.4855C53.3297 47.2332 53.1583 47.0082 52.9491 46.8234C52.7399 46.6386 52.4969 46.4975 52.2342 46.4083C51.9715 46.3191 51.6941 46.2835 51.4178 46.3035C51.1416 46.3235 50.8719 46.3987 50.6242 46.5249C50.3765 46.651 50.1556 46.8256 49.9741 47.0387C49.7927 47.2518 49.6542 47.4992 49.5666 47.7668C49.2869 48.6228 48.7494 49.3673 48.0307 49.8945C47.3119 50.4217 46.4483 50.7049 45.5625 50.7038H8.43751C7.31942 50.7024 6.24754 50.2493 5.45693 49.4441C4.66633 48.6388 4.22154 47.5471 4.22011 46.4083V16.8183C4.89723 17.0627 5.61042 17.1874 6.32881 17.1868H45.5625C46.6815 17.1875 47.7545 17.6406 48.5458 18.4466C49.337 19.2525 49.7819 20.3453 49.7826 21.4851V27.6093L42.714 27.6066ZM49.7799 36.2003H42.714C42.1547 36.2003 41.6184 35.974 41.2229 35.5713C40.8275 35.1685 40.6053 34.6222 40.6053 34.0526C40.6053 33.4829 40.8275 32.9367 41.2229 32.5339C41.6184 32.1311 42.1547 31.9048 42.714 31.9048H49.7799V36.2003ZM17.6256 12.8913L30.1914 5.11432L32.4378 8.98632C32.4808 9.09396 32.5323 9.19788 32.5917 9.29707C32.637 9.3706 32.6866 9.44131 32.7402 9.50882L34.7031 12.8913H17.6256ZM39.6009 12.8913L37.26 8.86807L40.8213 6.61857L44.5743 12.8913H39.6009Z" fill="white"/>
</g>
<defs>
<clipPath id="clip0">
<rect width="54" height="55" fill="white"/>
</clipPath>
</defs>
</svg>
